<?xml version="1.0" encoding="UTF-8"?>
<svg width="74px" height="33px" viewBox="0 0 74 33" version="1.1" xmlns="http://www.w3.org/2000/svg" xmlns:xlink="http://www.w3.org/1999/xlink">
    <!-- Generator: Sketch 52.3 (67297) - http://www.bohemiancoding.com/sketch -->
    <title>Page 1 Copy 2</title>
    <desc>Created with Sketch.</desc>
    <defs>
        <polygon id="path-1" points="26.538859 27.6962424 26.538859 0.215212267 0.0603960561 0.215212267 0.0603960561 27.6962424 26.538859 27.6962424"></polygon>
        <polygon id="path-3" points="7.57524236e-05 27.6469158 26.4785564 27.6469158 26.4785564 0.164020145 7.57524236e-05 0.164020145"></polygon>
    </defs>
    <g id="PLANES" stroke="none" stroke-width="1" fill="none" fill-rule="evenodd">
        <g id="Page-1-Copy-2">
            <g id="Group-3" transform="translate(47.000000, 0.000000)">
                <mask id="mask-2" fill="white">
                    <use xlink:href="#path-1"></use>
                </mask>
                <g id="Clip-2"></g>
                <path d="M26.4674083,23.450114 C26.6872368,24.1830283 26.3934497,24.6511286 25.6827816,24.7400324 L21.6659843,25.2203298 C21.0597284,25.2897181 20.5824522,25.024904 20.4514252,24.4250744 L16.9321211,9.73887005 C16.8279649,9.39003102 16.5574657,9.42391205 16.5288035,9.78874292 L15.8601051,24.9731338 C15.8265806,25.5922079 15.4521811,25.9659834 14.8438779,26.0353717 L11.9410662,26.3823134 C11.332763,26.45902 10.8943855,26.183093 10.729578,25.587058 L6.87426132,10.9469319 C6.76831368,10.5983639 6.49807044,10.6319739 6.46608142,10.9968047 L6.13672247,26.1421647 C6.13339561,26.7525652 5.72700709,27.1295933 5.12049527,27.2025052 L1.10369797,27.6847 C0.391494426,27.7700801 0.0101853041,27.3786866 0.0657182432,26.6135175 L1.76727821,3.19115881 C1.80412956,2.5701874 2.17724949,2.20020661 2.78376132,2.12512626 L7.54628666,1.55755135 C8.15279848,1.48301309 8.55918699,1.76219273 8.7593103,2.35118046 L11.5561743,10.93094 C11.6603306,11.2762554 11.9326211,11.2442717 11.9594919,10.8794409 L12.8766811,1.86193847 C12.9488483,1.23744343 13.2830696,0.87071522 13.8946997,0.798074304 L18.6523627,0.22670471 C19.26041,0.153792746 19.7021144,0.426196181 19.8651304,1.02223116 L26.4674083,23.450114 Z" id="Fill-1" fill="#FEFEFE" mask="url(#mask-2)"></path>
            </g>
            <g id="Group-6" transform="translate(0.000000, 5.226024)">
                <mask id="mask-4" fill="white">
                    <use xlink:href="#path-3"></use>
                </mask>
                <g id="Clip-5"></g>
                <path d="M0.0690962838,4.41347775 C-0.145869932,3.67676876 0.148173142,3.20704224 0.855258446,3.12139101 L4.87205574,2.64109361 C5.4834299,2.56818164 5.95558784,2.83516412 6.08815034,3.43472272 L9.60438345,18.1190297 C9.71186655,18.4697661 9.97724747,18.4377824 10.0110279,18.0694279 L10.6794704,2.88476594 C10.7163218,2.2675892 11.0909772,1.89381374 11.6941622,1.8244254 L14.6005566,1.47748371 C15.2086039,1.40294546 15.6469814,1.67480679 15.8133243,2.27301016 L19.6671056,16.9144915 C19.7745887,17.2668542 20.041761,17.2348705 20.0752855,16.866516 L20.4046444,1.72115604 C20.4095068,1.1039793 20.8094975,0.732101174 21.4208716,0.658918161 L25.4394603,0.175097134 C26.148337,0.0916142898 26.532973,0.483007883 26.4723218,1.24790589 L24.7722973,24.6705356 C24.7372373,25.291507 24.3625819,25.6617589 23.7576056,25.7276236 L18.9968716,26.3022458 C18.3870329,26.376784 17.9821799,26.0995017 17.7820566,25.504822 L14.9851926,16.9307544 C14.8792449,16.585439 14.6087458,16.6157964 14.581875,16.9841509 L13.6631503,25.999756 C13.5925186,26.629672 13.2565059,26.9926055 12.6466672,27.0671438 L7.88746875,27.6349897 C7.27763007,27.709528 6.83925253,27.4357693 6.67290963,26.8413606 L0.0690962838,4.41347775 Z" id="Fill-4" fill="#FEFEFE" mask="url(#mask-4)"></path>
            </g>
            <path d="M28.7461119,13.1550201 C28.9251542,10.7368949 29.8991026,4.18770409 38.024088,3.23295924 C46.1490734,2.27087438 46.138679,8.69881915 45.9544396,11.1207502 L45.2567204,20.2827123 C45.0743,22.7043716 44.1019107,29.2481254 35.9771852,30.2137443 C27.8503808,31.1755573 27.8625941,24.7402725 28.0450146,22.3224192 L28.7461119,13.1550201 Z M34.090355,19.6775694 C33.8736333,22.5045602 33.91625,24.2049956 36.4511665,23.9035115 C38.9930991,23.6039304 39.2981726,21.8599987 39.506319,19.0403479 L39.9106583,13.760163 C40.1240019,10.9369781 40.0847633,9.23627091 37.5464687,9.53585201 C35.0063551,9.83570496 34.7043999,11.5774619 34.4894972,14.4025497 L34.090355,19.6775694 Z" id="Fill-7" fill="#FEFEFE"></path>
        </g>
    </g>
</svg>